<svg xmlns="http://www.w3.org/2000/svg" width="48" height="48" fill="none">
  <path fill="#fff" d="M0 0h48v48H0z"/>
  <path fill="#22AD01" d="M27.953 18.265h-5.39v7.218h2.941V22.55h-2.223v-2.265h3.3c.331 0 .63.133.843.35.218.215.352.517.352.843v6.271H21.486c-.33 0-.629-.133-.843-.35a1.188 1.188 0 0 1-.35-.843V16h7.66c1.134 0 2.158.46 2.905 1.205a4.093 4.093 0 0 1 1.206 2.898v10.822c0 .608-.496 1.104-1.106 1.104H20.111a4.094 4.094 0 0 1-2.905-1.206A4.077 4.077 0 0 1 16 27.927V20.28h3.57v2.265h-1.303v5.38c0 .504.206.964.54 1.298.336.335.795.54 1.3.54h9.682v-9.66a1.83 1.83 0 0 0-.541-1.298c-.33-.33-.787-.54-1.295-.54Z"/>
</svg>
