<svg xmlns="http://www.w3.org/2000/svg" width="48" height="48" fill="none">
  <path fill="#fff" d="M0 0h48v48H0z"/>
  <path fill="#4185F3" d="M27.153 26.806h-6.506l-2.786 4.866c.335.17.716.28.962.28 2.56 0 7.783-.038 10.375-.038.267 0 .517-.091.74-.233l-2.785-4.875Z"/>
  <path fill="#1767D1" d="m17.861 31.672 2.786-4.866h-5.645c-.003.338.117.647.306 1 .525.982 1.413 2.552 1.934 3.372.129.202.64.504.62.494Z"/>
  <path fill="#E94235" d="m27.154 26.805 2.786 4.874c.361-.23.656-.593.847-.928.431-.755 1.16-2.012 1.664-2.863.234-.396.324-.751.319-1.083h-5.616Z"/>
  <path fill="#30A753" d="m20.648 26.805 3.25-5.65-2.904-4.841c-.314.206-.583.486-.705.7-1.268 2.224-3.822 6.78-5.106 9.032-.131.23-.194.494-.181.76h5.646Z"/>
  <path fill="#F9BC00" d="m27.154 26.805-3.256-5.649 2.825-4.837c.314.207.659.482.78.696 1.269 2.223 3.822 6.78 5.107 9.032.133.231.173.493.16.758h-5.616Z"/>
  <path fill="#0F8038" d="m20.994 16.315 2.905 4.841 2.824-4.837c-.291-.17-.704-.27-1.104-.284-1.113-.037-2.916-.052-3.887-.01-.24.011-.735.288-.738.29Z"/>
</svg>
