<svg xmlns="http://www.w3.org/2000/svg" width="48" height="48" fill="none">
  <path fill="#fff" d="M0 0h48v48H0z"/>
  <path fill="#0A1551" d="M20.985 31.205c.303.293.09.795-.34.795h-2.684c-.53 0-.961-.418-.961-.931v-2.603c0-.416.518-.623.82-.33l3.165 3.07Z"/>
  <path fill="#FFB629" d="M25.182 31.408a2.012 2.012 0 0 1 0-2.858l2.868-2.85a2.044 2.044 0 0 1 2.877 0c.795.79.795 2.07 0 2.86l-2.867 2.848c-.795.79-2.083.79-2.878 0Z"/>
  <path fill="#09F" d="M17.606 24.249a2.012 2.012 0 0 1 0-2.859l4.826-4.798a2.044 2.044 0 0 1 2.878 0c.794.79.794 2.07 0 2.859l-4.827 4.798c-.794.79-2.083.79-2.877 0Z"/>
  <path fill="#FF6100" d="M21.551 27.669a2.012 2.012 0 0 1 0-2.86l6.521-6.478a2.044 2.044 0 0 1 2.878 0c.794.79.794 2.07 0 2.86l-6.521 6.478c-.795.79-2.083.79-2.878 0Z"/>
</svg>
