<svg xmlns="http://www.w3.org/2000/svg" width="48" height="48" fill="none">
  <path fill="#E1567C" d="M0 0h48v48H0z"/>
  <path fill="#fff" fill-rule="evenodd" d="M21.329 15.5c-.96 0-1.879.38-2.557 1.059L15.5 19.831v1.498c0 1.058.454 2.01 1.179 2.671a3.606 3.606 0 0 0-1.179 2.671v1.498l3.272 3.272a3.616 3.616 0 0 0 5.228-.12 3.616 3.616 0 0 0 5.228.12l3.272-3.272v-1.498c0-1.058-.455-2.01-1.179-2.671a3.606 3.606 0 0 0 1.179-2.671V19.83l-3.272-3.272a3.616 3.616 0 0 0-5.228.12 3.606 3.606 0 0 0-2.671-1.179Zm5.119 8.5a3.695 3.695 0 0 1-.12-.115L24 21.558l-2.327 2.327c-.04.04-.08.078-.12.115l.12.114L24 26.442l2.328-2.328c.039-.039.079-.077.12-.114Zm-1.503 4.169v.715a1.727 1.727 0 0 0 2.948 1.221l2.719-2.718v-.716a1.727 1.727 0 0 0-2.948-1.22l-2.719 2.718Zm-1.89 0-2.718-2.719a1.727 1.727 0 0 0-2.948 1.221v.716l2.719 2.718a1.727 1.727 0 0 0 2.948-1.22v-.716Zm0-9.053v.715l-2.718 2.719a1.727 1.727 0 0 1-2.948-1.221v-.716l2.719-2.718a1.727 1.727 0 0 1 2.948 1.22Zm4.61 3.434-2.72-2.72v-.714a1.727 1.727 0 0 1 2.948-1.221l2.719 2.718v.715a1.727 1.727 0 0 1-2.948 1.222Z" clip-rule="evenodd"/>
</svg>
