<svg xmlns="http://www.w3.org/2000/svg" width="48" height="48" fill="none">
  <path fill="#5E6AD2" d="M0 0h48v48H0z"/>
  <path fill="url(#a)" fill-rule="evenodd" d="M18.018 18.675a.158.158 0 0 0 .007.217l11.083 11.083c.06.059.154.063.217.007a8.008 8.008 0 1 0-11.306-11.306Zm-1.344 2.078a.158.158 0 0 0 .033.176l10.364 10.364c.046.046.116.06.176.033.286-.127.563-.27.83-.43a.157.157 0 0 0 .03-.246L17.35 19.894a.157.157 0 0 0-.247.03 7.982 7.982 0 0 0-.43.829Zm-.627 2.871a.159.159 0 0 1-.047-.122c.024-.379.074-.75.148-1.114a.156.156 0 0 1 .264-.076l9.276 9.276a.156.156 0 0 1-.076.264 8.014 8.014 0 0 1-1.114.148.158.158 0 0 1-.122-.047l-8.33-8.329Zm.404 2.082c-.11-.11-.29-.014-.255.138a8.02 8.02 0 0 0 5.96 5.96c.152.036.248-.145.138-.255l-5.843-5.843Z" clip-rule="evenodd"/>
  <defs>
    <linearGradient id="a" x1="16" x2="16" y1="16" y2="32" gradientUnits="userSpaceOnUse">
      <stop stop-color="#fff"/>
      <stop offset="1" stop-color="#fff" stop-opacity=".64"/>
    </linearGradient>
  </defs>
</svg>
