<svg xmlns="http://www.w3.org/2000/svg" width="48" height="48" fill="none">
  <path fill="#fff" d="M0 0h48v48H0z"/>
  <path fill="#0B0909" d="M31.38 29c1.75 0 3.084-.542 3.792-1.291.375-.417.813-1.062.5-1.562-.27-.437-.73-.52-1.271-.25a4.03 4.03 0 0 1-1.834.417c-.667 0-1.376-.25-1.751-.625a2.372 2.372 0 0 1-.708-1.73c0-.167.104-.187.291-.041.48.374 1.188.562 2.147.562 1.771 0 3.334-1.188 3.334-3.02 0-1.937-1.834-3.374-4.605-3.374-3.105 0-5.502 1.999-5.502 5.373C25.775 26.605 27.858 29 31.38 29ZM18.564 25.706c.333 0 .52.188.75.542l1 1.562c.375.604.688 1.02 1.418 1.02s1.063-.29 1.417-1.103c.437-1 .896-2.208 1.313-3.832.458-1.813.666-2.937.666-3.853 0-.917-.292-1.459-1.291-1.646-1.376-.25-3.23-.396-5.273-.396-2.043 0-3.896.146-5.272.396-1 .188-1.292.728-1.292 1.645 0 .916.209 2.04.666 3.853a24.392 24.392 0 0 0 1.314 3.832c.354.812.688 1.103 1.417 1.103.73 0 1.043-.416 1.418-1.02l1-1.562c.228-.353.416-.54.749-.54Z"/>
</svg>
