<svg xmlns="http://www.w3.org/2000/svg" width="48" height="48" fill="none">
  <path fill="#fff" d="M0 0h48v48H0z"/>
  <g fill="#020202" opacity=".98">
    <path d="M18.858 18.215h2.571a.643.643 0 0 0 .643-.643v-1.93a.643.643 0 0 1 .643-.642h1.928a.643.643 0 0 1 .643.643v1.929a.643.643 0 0 1-.643.643h-1.928a.643.643 0 0 0-.643.642v2.572a.643.643 0 0 1-.643.643h-2.571a.643.643 0 0 1-.643-.643v-2.572a.643.643 0 0 1 .643-.642ZM18.215 29.142V26.57a.643.643 0 0 0-.643-.642h-1.93a.643.643 0 0 1-.642-.643v-1.928a.643.643 0 0 1 .643-.643h1.929a.643.643 0 0 1 .643.643v1.928a.642.642 0 0 0 .642.643h2.572a.642.642 0 0 1 .643.642v2.572a.643.643 0 0 1-.643.643h-2.572a.642.642 0 0 1-.642-.643ZM29.143 29.785h-2.572a.643.643 0 0 0-.642.642v1.93a.643.643 0 0 1-.643.642h-1.929a.642.642 0 0 1-.642-.642v-1.93a.643.643 0 0 1 .642-.642h1.929a.643.643 0 0 0 .643-.643V26.57a.643.643 0 0 1 .642-.642h2.572a.643.643 0 0 1 .643.642v2.572a.642.642 0 0 1-.643.643ZM29.785 18.857v2.571a.643.643 0 0 0 .642.643h1.93a.643.643 0 0 1 .642.643v1.928a.642.642 0 0 1-.642.643h-1.93a.642.642 0 0 1-.642-.643v-1.928a.643.643 0 0 0-.643-.643H26.57a.642.642 0 0 1-.642-.643v-2.572a.643.643 0 0 1 .642-.642h2.572a.643.643 0 0 1 .643.643Z"/>
  </g>
</svg>
