<svg xmlns="http://www.w3.org/2000/svg" width="48" height="48" fill="none">
  <path fill="#fff" d="M0 0h48v48H0z"/>
  <path fill="#E24329" d="m24.228 33 3.398-10.458H20.83L24.228 33Z"/>
  <path fill="#FC6D26" d="m24.227 33-3.398-10.458h-4.763L24.226 33Z"/>
  <path fill="#FCA326" d="m16.067 22.542-1.033 3.178a.703.703 0 0 0 .256.787L24.227 33l-8.16-10.458Z"/>
  <path fill="#E24329" d="M16.066 22.542h4.763l-2.047-6.299a.352.352 0 0 0-.669 0l-2.047 6.299Z"/>
  <path fill="#FC6D26" d="m24.227 33 3.398-10.458h4.762L24.227 33Z"/>
  <path fill="#FCA326" d="m32.387 22.542 1.032 3.178a.703.703 0 0 1-.255.787L24.227 33l8.16-10.458Z"/>
  <path fill="#E24329" d="M32.387 22.542h-4.762l2.047-6.299a.352.352 0 0 1 .669 0l2.046 6.299Z"/>
</svg>
