<svg xmlns="http://www.w3.org/2000/svg" width="48" height="48" fill="none">
  <path fill="#fff" d="M0 0h48v48H0z"/>
  <g opacity=".88">
    <path fill="#FCB400" d="m22.52 16.201-7.114 2.944a.477.477 0 0 0 .006.883l7.143 2.833a2.65 2.65 0 0 0 1.954 0l7.144-2.833a.476.476 0 0 0 .006-.883l-7.113-2.944a2.651 2.651 0 0 0-2.027 0"/>
    <path fill="#18BFFF" d="M24.166 24.408v7.076c0 .337.34.567.652.443l7.96-3.09a.477.477 0 0 0 .3-.442v-7.077a.477.477 0 0 0-.652-.443l-7.96 3.09a.477.477 0 0 0-.3.443"/>
    <path fill="#F82B60" d="m22.308 24.773-2.362 1.14-.24.116-4.986 2.39c-.316.152-.72-.078-.72-.43v-6.641c0-.127.065-.237.152-.32a.543.543 0 0 1 .121-.09.508.508 0 0 1 .434-.033l7.561 2.996c.385.152.415.69.04.872"/>
    <path fill="#000" fill-opacity=".25" d="m22.308 24.773-2.362 1.14-5.794-4.884a.545.545 0 0 1 .121-.091c.12-.072.29-.09.434-.033l7.561 2.996c.385.152.415.69.04.872"/>
  </g>
</svg>
