<svg xmlns="http://www.w3.org/2000/svg" width="48" height="48" fill="none">
  <path fill="#FF4A00" d="M0 0h48v48H0z"/>
  <path fill="#fff" fill-rule="evenodd" d="M27.22 22.667h4.669c.073.432.11.875.111 1.327v.012c0 .452-.038.895-.111 1.327h-4.67l3.302 3.302a8.057 8.057 0 0 1-1.886 1.886l-3.302-3.302v4.67c-.439.073-.883.11-1.327.111h-.012c-.445 0-.889-.038-1.327-.111v-4.67l-3.302 3.302a8.058 8.058 0 0 1-1.886-1.886l3.302-3.302h-4.67a7.99 7.99 0 0 1-.111-1.33v-.006c0-.453.111-1.33.111-1.33h4.67l-3.302-3.302c.259-.364.547-.705.863-1.02l.002-.002a7.987 7.987 0 0 1 1.02-.864l3.303 3.302v-4.67A8.05 8.05 0 0 1 23.996 16h.008c.445 0 .89.038 1.33.111v4.67l3.301-3.302a8.033 8.033 0 0 1 1.886 1.886l-3.302 3.302Zm-1.527 3.025c.203-.54.307-1.112.307-1.689v-.007c0-.576-.104-1.148-.307-1.688a4.78 4.78 0 0 0-1.69-.308h-.006c-.578 0-1.15.104-1.69.308A4.786 4.786 0 0 0 22 23.997v.006c0 .578.104 1.15.308 1.69a4.797 4.797 0 0 0 1.689.307h.006c.577 0 1.15-.104 1.69-.308Z" clip-rule="evenodd"/>
</svg>
