<svg xmlns="http://www.w3.org/2000/svg" width="48" height="48" fill="none">
  <path fill="#fff" d="M0 0h48v48H0z"/>
  <g fill="#0B0909" opacity=".72">
    <path d="M17 18.27c0-.702.568-1.27 1.27-1.27h5.045c.702 0 1.27.568 1.27 1.27v1.002c0 .368-.301.635-.635.635h-6.315c-.334.033-.635-.267-.635-.635V18.27Z" opacity=".48"/>
    <path d="M17 22.313c0-.334.3-.635.635-.635H29.73c.702 0 1.27.568 1.27 1.27v3.34c0 .368-.3.636-.635.636H18.27c-.702.033-1.27-.569-1.27-1.27v-3.341Z"/>
    <path d="M23.416 29.33c0-.368.3-.636.635-.636h6.315c.367 0 .635.301.635.635v.401A1.27 1.27 0 0 1 29.73 31H24.72a1.27 1.27 0 0 1-1.27-1.27v-.4h-.033Z" opacity=".48"/>
  </g>
</svg>
