<svg xmlns="http://www.w3.org/2000/svg" width="48" height="48" fill="none">
  <path fill="#1F2937" d="M0 0h48v48H0z"/>
  <path fill="#F3F4F6" fill-rule="evenodd" d="M23.512 16C18.831 16 15 19.83 15 24.512c0 3.724 2.447 6.916 5.852 8.087.426.106.532-.213.532-.426v-1.49c-2.34.532-2.873-1.064-2.873-1.064-.425-.957-.957-1.276-.957-1.276-.745-.532.106-.532.106-.532.851.106 1.277.85 1.277.85.745 1.384 2.021.958 2.447.746.107-.532.32-.958.532-1.17-1.915-.214-3.83-.958-3.83-4.257 0-.957.319-1.702.85-2.234-.105-.213-.425-1.064.107-2.235 0 0 .745-.212 2.341.852.639-.213 1.383-.32 2.128-.32.745 0 1.49.107 2.128.32 1.596-1.064 2.341-.852 2.341-.852.426 1.17.213 2.022.106 2.235.532.638.852 1.383.852 2.234 0 3.299-2.022 3.937-3.937 4.15.319.425.638.957.638 1.702v2.341c0 .213.107.532.639.426 3.404-1.17 5.852-4.363 5.852-8.087C32.024 19.831 28.194 16 23.512 16Z" clip-rule="evenodd"/>
</svg>
