<svg xmlns="http://www.w3.org/2000/svg" width="48" height="48" fill="none">
  <path fill="#FF3C00" d="M0 0h48v48H0z"/>
  <path fill="#fff" fill-opacity=".9" d="M32.34 20.58s-.159-1.17-.663-1.702c-.638-.665-1.382-.692-1.7-.718C27.559 18 24 18 24 18s-3.56 0-5.95.16c-.345.026-1.063.053-1.7.718-.505.506-.664 1.703-.664 1.703s-.186 1.384-.186 2.767v1.304c0 1.383.16 2.767.16 2.767s.159 1.17.663 1.703c.638.665 1.488.665 1.886.718C19.564 29.973 24 30 24 30s3.56 0 5.95-.186c.345-.027 1.063-.053 1.7-.719.505-.505.664-1.703.664-1.703s.186-1.383.186-2.767v-1.303c0-1.357-.16-2.741-.16-2.741Zm-10.093 5.615v-4.79l4.595 2.395-4.595 2.395Z"/>
</svg>
